<?xml version="1.0" encoding="UTF-8" standalone="yes"?>
<svg xmlns="http://www.w3.org/2000/svg" xmlns:xlink="http://www.w3.org/1999/xlink" width="72px" height="72px" viewBox="0 0 72 72" version="1.1" fill="#000000">
  <g id="surface425908">
    <path style=" stroke:none;fill-rule:nonzero;fill:#000000;fill-opacity:1;" d="M 34.425781 5.714844 C 34.363281 5.726562 34.300781 5.742188 34.246094 5.761719 C 33.574219 5.910156 33.101562 6.515625 33.121094 7.199219 L 33.121094 15.839844 C 33.113281 16.359375 33.382812 16.839844 33.835938 17.105469 C 34.285156 17.363281 34.835938 17.363281 35.285156 17.105469 C 35.734375 16.839844 36.003906 16.359375 36 15.839844 L 36 7.199219 C 36.015625 6.785156 35.847656 6.382812 35.550781 6.101562 C 35.246094 5.816406 34.835938 5.675781 34.425781 5.714844 Z M 13.90625 14.175781 C 13.363281 14.269531 12.933594 14.664062 12.78125 15.1875 C 12.628906 15.714844 12.785156 16.277344 13.183594 16.648438 L 19.304688 22.769531 C 19.652344 23.199219 20.210938 23.394531 20.75 23.269531 C 21.285156 23.148438 21.707031 22.726562 21.832031 22.191406 C 21.953125 21.652344 21.757812 21.09375 21.328125 20.746094 L 15.210938 14.625 C 14.910156 14.304688 14.480469 14.140625 14.039062 14.175781 C 13.996094 14.175781 13.949219 14.175781 13.90625 14.175781 Z M 54.765625 14.175781 C 54.4375 14.21875 54.136719 14.382812 53.910156 14.625 L 47.789062 20.746094 C 47.363281 21.09375 47.164062 21.652344 47.289062 22.191406 C 47.414062 22.726562 47.835938 23.148438 48.371094 23.269531 C 48.910156 23.394531 49.464844 23.199219 49.816406 22.769531 L 55.933594 16.648438 C 56.386719 16.222656 56.515625 15.554688 56.25 14.992188 C 55.980469 14.421875 55.382812 14.097656 54.765625 14.175781 Z M 34.425781 21.601562 C 34.378906 21.609375 34.335938 21.628906 34.289062 21.644531 C 34.226562 21.644531 34.171875 21.644531 34.109375 21.644531 C 34.082031 21.65625 34.046875 21.671875 34.019531 21.691406 C 29.261719 21.875 25.03125 24.304688 22.546875 28.035156 C 22.09375 28.703125 22.28125 29.609375 22.949219 30.058594 C 23.621094 30.511719 24.523438 30.324219 24.976562 29.65625 C 27.027344 26.574219 30.5 24.515625 34.46875 24.480469 C 34.5 24.480469 34.53125 24.480469 34.558594 24.480469 C 34.605469 24.480469 34.648438 24.480469 34.695312 24.480469 C 40.996094 24.554688 46.078125 29.683594 46.078125 36 C 46.078125 40.601562 43.359375 44.542969 39.464844 46.394531 C 38.746094 46.742188 38.441406 47.609375 38.789062 48.328125 C 39.140625 49.050781 40.003906 49.355469 40.726562 49.003906 C 45.597656 46.691406 48.960938 41.726562 48.960938 36 C 48.960938 28.3125 42.835938 22.113281 35.234375 21.734375 C 35.191406 21.71875 35.144531 21.703125 35.101562 21.691406 C 34.953125 21.632812 34.800781 21.605469 34.648438 21.601562 C 34.621094 21.601562 34.589844 21.601562 34.558594 21.601562 C 34.515625 21.601562 34.46875 21.601562 34.425781 21.601562 Z M 8.234375 33.121094 C 7.441406 33.234375 6.886719 33.96875 6.996094 34.761719 C 7.109375 35.554688 7.847656 36.113281 8.640625 36 L 30.238281 36 C 30.757812 36.003906 31.242188 35.734375 31.503906 35.285156 C 31.765625 34.835938 31.765625 34.285156 31.503906 33.835938 C 31.242188 33.382812 30.757812 33.113281 30.238281 33.121094 L 8.640625 33.121094 C 8.59375 33.121094 8.550781 33.121094 8.503906 33.121094 C 8.460938 33.121094 8.414062 33.121094 8.371094 33.121094 C 8.324219 33.121094 8.28125 33.121094 8.234375 33.121094 Z M 54.316406 34.558594 C 53.523438 34.671875 52.964844 35.410156 53.078125 36.203125 C 53.191406 36.996094 53.925781 37.550781 54.71875 37.441406 L 63.359375 37.441406 C 63.878906 37.445312 64.359375 37.175781 64.625 36.726562 C 64.882812 36.277344 64.882812 35.722656 64.625 35.273438 C 64.359375 34.824219 63.878906 34.554688 63.359375 34.558594 L 54.71875 34.558594 C 54.675781 34.558594 54.628906 34.558594 54.585938 34.558594 C 54.539062 34.558594 54.496094 34.558594 54.449219 34.558594 C 54.40625 34.558594 54.359375 34.558594 54.316406 34.558594 Z M 15.433594 41.761719 C 14.640625 41.871094 14.085938 42.609375 14.199219 43.402344 C 14.308594 44.195312 15.046875 44.753906 15.839844 44.640625 L 37.441406 44.640625 C 37.957031 44.644531 38.441406 44.375 38.707031 43.925781 C 38.964844 43.476562 38.964844 42.925781 38.707031 42.472656 C 38.441406 42.023438 37.957031 41.753906 37.441406 41.761719 L 15.839844 41.761719 C 15.796875 41.761719 15.75 41.761719 15.703125 41.761719 C 15.660156 41.761719 15.613281 41.761719 15.570312 41.761719 C 15.523438 41.761719 15.480469 41.761719 15.433594 41.761719 Z M 48.511719 48.78125 C 47.96875 48.875 47.535156 49.269531 47.386719 49.792969 C 47.234375 50.320312 47.390625 50.882812 47.789062 51.253906 L 53.910156 57.375 C 54.257812 57.800781 54.816406 58 55.355469 57.875 C 55.890625 57.75 56.3125 57.328125 56.4375 56.796875 C 56.558594 56.253906 56.363281 55.699219 55.933594 55.351562 L 49.816406 49.230469 C 49.546875 48.941406 49.171875 48.785156 48.78125 48.78125 C 48.734375 48.78125 48.691406 48.78125 48.644531 48.78125 C 48.601562 48.78125 48.554688 48.78125 48.511719 48.78125 Z M 8.234375 50.398438 C 7.441406 50.511719 6.886719 51.25 6.996094 52.042969 C 7.109375 52.835938 7.847656 53.390625 8.640625 53.28125 L 30.238281 53.28125 C 30.757812 53.285156 31.242188 53.015625 31.503906 52.566406 C 31.765625 52.117188 31.765625 51.5625 31.503906 51.113281 C 31.242188 50.664062 30.757812 50.394531 30.238281 50.398438 L 8.640625 50.398438 C 8.59375 50.398438 8.550781 50.398438 8.503906 50.398438 C 8.460938 50.398438 8.414062 50.398438 8.371094 50.398438 C 8.324219 50.398438 8.28125 50.398438 8.234375 50.398438 Z M 34.425781 54.675781 C 34.363281 54.6875 34.300781 54.703125 34.246094 54.71875 C 33.574219 54.871094 33.101562 55.472656 33.121094 56.160156 L 33.121094 64.800781 C 33.113281 65.316406 33.382812 65.800781 33.835938 66.066406 C 34.285156 66.324219 34.835938 66.324219 35.285156 66.066406 C 35.734375 65.800781 36.003906 65.316406 36 64.800781 L 36 56.160156 C 36.015625 55.742188 35.847656 55.34375 35.550781 55.0625 C 35.246094 54.777344 34.835938 54.636719 34.425781 54.675781 Z M 34.425781 54.675781 "/>
  </g>
</svg>
